<?xml version="1.0" encoding="UTF-8" standalone="no"?>
<!-- Created with Inkscape (http://www.inkscape.org/) -->

<svg
   width="52.916668mm"
   height="27.574692mm"
   viewBox="0 0 52.916668 27.574692"
   version="1.1"
   id="svg5"
   xmlns="http://www.w3.org/2000/svg"
   xmlns:svg="http://www.w3.org/2000/svg">
  <defs
     id="defs2" />
  <g
     id="layer1"
     transform="translate(-53.467021,-78.076371)">
    <g
       id="g4996"
       transform="matrix(0.93091918,0,0,0.93091918,3.6935457,5.3935798)">
      <path
         id="path846"
         style="color:#000000;fill:#ff7f2a;stroke-width:3.77953;stroke-linecap:round;stroke-linejoin:round;-inkscape-stroke:none;paint-order:stroke fill markers"
         d="m 275.97461,332.00977 h 10.76367 v -0.0137 h -10.76367 z"
         transform="scale(0.26458333)" />
      <path
         id="path4198"
         style="color:#000000;fill:#ff7f2a;stroke-width:3.77953;stroke-linecap:round;stroke-linejoin:round;-inkscape-stroke:none;paint-order:stroke fill markers"
         d="m 258.05664,314.32812 c -20.22287,0 -36.74023,16.51737 -36.74023,36.74024 0,20.22287 16.51736,36.73828 36.74023,36.73828 11.07155,0 21.02377,-4.95686 27.77148,-12.75586 -0.15266,-0.0635 -0.30445,-0.12793 -0.45507,-0.19531 -0.1759,-0.0787 -0.35033,-0.16021 -0.52344,-0.24414 -0.17049,-0.0866 -0.3398,-0.17578 -0.50586,-0.26758 -0.16606,-0.0918 -0.3286,-0.18616 -0.49023,-0.2832 -0.16164,-0.097 -0.32131,-0.19654 -0.47852,-0.29883 -0.15721,-0.10229 -0.31206,-0.20692 -0.46484,-0.31445 -0.15278,-0.10754 -0.30282,-0.2173 -0.45118,-0.33008 -0.14835,-0.11278 -0.29552,-0.22963 -0.43945,-0.34766 -0.14393,-0.11803 -0.28628,-0.23805 -0.42578,-0.36133 -0.1395,-0.12327 -0.27508,-0.24843 -0.41016,-0.37695 -0.13507,-0.12852 -0.26974,-0.26077 -0.40039,-0.39453 -0.13065,-0.13377 -0.25854,-0.26919 -0.38476,-0.4082 -0.12623,-0.13902 -0.2493,-0.28153 -0.3711,-0.42579 -0.12179,-0.14425 -0.242,-0.2919 -0.35937,-0.4414 -0.11737,-0.1495 -0.23276,-0.30033 -0.3457,-0.45508 -0.11295,-0.15475 -0.22352,-0.31266 -0.33204,-0.47266 -0.10852,-0.15999 -0.21426,-0.32304 -0.31835,-0.48828 -0.1041,-0.16524 -0.20698,-0.33342 -0.30665,-0.5039 -0.0997,-0.17311 -0.19562,-0.3477 -0.28906,-0.52539 -0.0934,-0.1777 -0.18427,-0.35678 -0.27148,-0.53907 -0.0399,-0.0834 -0.0766,-0.16951 -0.11524,-0.2539 -4.63268,5.66974 -11.68659,9.27148 -19.63281,9.27148 -14.05775,0 -25.33594,-11.26842 -25.33594,-25.32617 0,-14.05775 11.27819,-25.33594 25.33594,-25.33594 6.4336,0 12.27782,2.36789 16.73047,6.27735 h 1.1875 v -0.0137 h 10.76367 v 0.0137 h 2.69922 c -6.46317,-10.58506 -18.12524,-17.68165 -31.38086,-17.68165 z"
         transform="scale(0.26458333)" />
      <path
         id="path4195"
         style="color:#000000;fill:#ff7f2a;stroke-width:3.77953;stroke-linecap:round;stroke-linejoin:round;-inkscape-stroke:none;paint-order:stroke fill markers"
         d="m 300.78125,363.83203 c 0.0374,-0.0531 0.0754,-0.10571 0.11133,-0.16015 0.0682,-0.10344 0.13432,-0.20822 0.19726,-0.31641 0.1259,-0.21639 0.24079,-0.44234 0.34571,-0.67774 0.10491,-0.2354 0.19927,-0.47995 0.2832,-0.73437 0.0839,-0.25442 0.15775,-0.51954 0.2207,-0.79297 0.063,-0.27343 0.11624,-0.55521 0.15821,-0.84766 0.042,-0.29244 0.0728,-0.59478 0.0937,-0.90625 0.021,-0.31146 0.0312,-0.63241 0.0312,-0.96289 v -1.32812 c -0.30972,2.30363 -0.79575,4.55012 -1.44141,6.72656 z"
         transform="scale(0.26458333)" />
      <path
         id="path4193"
         style="color:#000000;fill:#ff7f2a;stroke-width:3.77953;stroke-linecap:round;stroke-linejoin:round;-inkscape-stroke:none;paint-order:stroke fill markers"
         d="m 294.79297,376.61133 h -0.16992 c -10e-4,10e-4 -0.003,0.002 -0.004,0.004 0.0582,-8.8e-4 0.11583,-0.003 0.17383,-0.004 z"
         transform="scale(0.26458333)" />
      <path
         id="path4187"
         style="color:#000000;fill:#ff7f2a;stroke-width:3.77953;stroke-linecap:round;stroke-linejoin:round;-inkscape-stroke:none;paint-order:stroke fill markers"
         d="m 310.68164,331.99609 h -8.45898 v 0.0137 h 8.46289 c -0.002,-0.004 -0.002,-0.009 -0.004,-0.0137 z"
         transform="scale(0.26458333)" />
      <path
         id="path4185"
         style="color:#000000;fill:#ff7f2a;stroke-width:3.77953;stroke-linecap:round;stroke-linejoin:round;-inkscape-stroke:none;paint-order:stroke fill markers"
         d="m 258.05664,295.0918 c -30.84865,0 -55.97656,25.12791 -55.97656,55.97656 0,30.84866 25.12791,55.97656 55.97656,55.97656 21.65444,0 40.48882,-12.3829 49.79297,-30.43359 h -13.05664 c -0.058,10e-4 -0.11564,0.003 -0.17383,0.004 -8.0448,11.51446 -21.3971,19.02539 -36.5625,19.02539 -24.68353,0 -44.57227,-19.88873 -44.57226,-44.57226 0,-24.68354 19.88873,-44.57227 44.57226,-44.57227 17.85719,0 33.20114,10.41038 40.32422,25.51368 h 3.8418 v -0.0137 h 8.45898 c -7.82252,-21.49691 -28.46912,-36.90429 -52.625,-36.90429 z"
         transform="scale(0.26458333)" />
      <path
         d="m 76.165407,88.703233 v 5.972904 q 0,0.895936 0.440857,1.379457 0.440858,0.483521 1.29413,0.483521 0.853272,0 1.30835,-0.483521 0.455078,-0.483521 0.455078,-1.379457 v -5.972904 h 2.431826 v 5.958683 q 0,1.336793 -0.568848,2.261171 -0.568848,0.924378 -1.53589,1.393678 -0.95282,0.469299 -2.13318,0.469299 -1.18036,0 -2.118959,-0.455078 -0.924378,-0.4693 -1.464783,-1.393678 -0.540406,-0.938599 -0.540406,-2.275392 v -5.958683 z"
         id="path4131"
         style="font-weight:bold;font-size:14.2212px;line-height:1.25;font-family:Poppins;-inkscape-font-specification:'Poppins, Bold';stroke-width:0.235094" />
      <path
         d="M 90.016855,96.923087 H 86.2909 l -0.59729,1.763429 H 83.148015 L 86.7602,88.703233 h 2.815798 l 3.612184,9.983283 h -2.574037 z m -0.625733,-1.877198 -1.237244,-3.654849 -1.223024,3.654849 z"
         id="path4133"
         style="font-weight:bold;font-size:14.2212px;line-height:1.25;font-family:Poppins;-inkscape-font-specification:'Poppins, Bold';stroke-width:0.235094" />
      <path
         d="m 100.07124,98.686516 -3.356207,-4.408572 v 4.408572 h -2.431826 v -9.983283 h 2.431826 v 4.38013 l 3.327757,-4.38013 h 2.85846 l -3.868162,4.892093 4.010382,5.09119 z"
         id="path4135"
         style="font-weight:bold;font-size:14.2212px;line-height:1.25;font-family:Poppins;-inkscape-font-specification:'Poppins, Bold';stroke-width:0.235094" />
      <path
         d="m 106.62719,90.651538 v 2.01941 h 3.25665 v 1.877199 h -3.25665 v 2.190064 h 3.68329 v 1.948305 h -6.11512 v -9.983283 h 6.11512 v 1.948305 z"
         id="path4137"
         style="font-weight:bold;font-size:14.2212px;line-height:1.25;font-family:Poppins;-inkscape-font-specification:'Poppins, Bold';stroke-width:0.235094" />
      <path
         style="fill:none;stroke:#000000;stroke-width:2.64583;stroke-linecap:round;stroke-linejoin:round;stroke-miterlimit:4;stroke-dasharray:none;stroke-opacity:1"
         d="m 67.834102,92.886836 7.401949,12.820554"
         id="path4802" />
    </g>
  </g>
</svg>
